<svg width="156" height="173" viewBox="0 0 156 173" fill="none" xmlns="http://www.w3.org/2000/svg">
<line x1="40.0996" y1="165.904" x2="116.016" y2="6.91745" stroke="#313131"/>
<circle cx="5.5" cy="5.5" r="5.5" transform="matrix(0.970516 -0.241036 -0.241036 -0.970516 35.9336 172.418)" fill="#313131"/>
<circle cx="5.5" cy="5.5" r="5.5" transform="matrix(0.970516 -0.241036 -0.241036 -0.970516 111.851 13.4316)" fill="#313131"/>
<line x1="16.0001" y1="70.3998" x2="144.131" y2="105.726" stroke="#313131"/>
<circle cx="5.5" cy="5.5" r="5.5" transform="matrix(0.410793 0.911729 0.911729 -0.410793 6.65039 66.96)" fill="#313131"/>
<circle cx="5.5" cy="5.5" r="5.5" transform="matrix(0.410793 0.911729 0.911729 -0.410793 136.975 102.792)" fill="#313131"/>
<line x1="43.6355" y1="99.9251" x2="122.019" y2="71.1844" stroke="#313131"/>
<circle cx="2.87565" cy="2.87565" r="2.87565" transform="matrix(0.866533 0.49912 0.49912 -0.866533 37.666 101.771)" fill="#313131"/>
<circle cx="3.59614" cy="3.59614" r="3.59614" transform="matrix(0.866533 0.49912 0.49912 -0.866533 116.77 71.8438)" fill="#313131"/>
<line x1="95.2099" y1="144.89" x2="56.7315" y2="17.6704" stroke="#313131"/>
<circle cx="3.6899" cy="3.6899" r="3.6899" transform="matrix(0.551983 -0.833855 -0.833855 -0.551983 96.7783 152.123)" fill="#313131"/>
<circle cx="3.75816" cy="3.75816" r="3.75816" transform="matrix(0.551983 -0.833855 -0.833855 -0.551983 57.5762 22.873)" fill="#313131"/>
</svg>
